<svg width="28" height="28" viewBox="0 0 28 28" fill="none" xmlns="http://www.w3.org/2000/svg">
<path d="M18.3666 12.2599C18.4399 8.57325 12.8399 9.07992 14.28 2.66658C14.28 2.66658 10.52 4.14659 11.18 8.68658C11.4066 10.2466 10.86 11.4133 10.86 11.4133C10.3066 11.5266 9.44662 10.4266 9.74661 8.72659C9.74661 8.72659 7.77329 10.1999 7.77329 12.0932C7.77329 13.9866 8.68662 15.9933 8.68662 15.9933C6.41328 15.4999 6.63996 12.4333 6.63996 12.4333C6.63996 12.4333 5.19995 14.3599 5.19995 17.9933C5.19995 20.8199 8.38662 25.3332 13.5266 25.3332C18.6666 25.3332 22.7932 21.3466 22.7932 17.8C22.7932 16.2465 22.2666 14.2399 21.1267 13.1466C21.1267 13.1466 21.28 16.2465 19.7466 16.0999C19.7466 16.0999 21.0133 12.0533 19.6866 10.1999C19.6866 10.1999 19.0466 12.2 18.3666 12.2599Z" fill="url(#paint0_linear_11_95)"/>
<path d="M18.3731 9.48023C19.8663 6.72689 16.1663 6.3469 16.1597 4.65356C16.1597 4.65356 15.5063 6.40023 17.0664 7.59356C18.3397 8.56023 18.3731 9.48023 18.3731 9.48023Z" fill="url(#paint1_linear_11_95)"/>
<path d="M10.5198 4.21322C9.95316 4.77322 10.7332 7.08655 8.95983 7.99988C8.95983 7.99988 8.35983 5.45988 10.5198 4.21322Z" fill="url(#paint2_linear_11_95)"/>
<path opacity="0.5" d="M6.36662 13.3598C5.87328 14.2066 5.19995 15.7732 5.19995 17.9933C5.19995 20.4732 8.35995 25.0333 13.5266 25.0333C18.5733 25.0333 22.4933 21.1465 22.4933 17.8066C22.4933 16.5999 22.16 15.0599 21.42 13.9665C21.3666 14.6532 21.1999 15.5865 20.6866 16.0733C20.4199 16.3266 20.0866 16.4398 19.7199 16.3999L19.3466 16.3666L19.46 16.0132C19.4733 15.9799 20.44 12.8199 19.74 10.9466C19.46 11.6332 18.98 12.5198 18.3933 12.5665L18.06 12.5932L18.0666 12.2599C18.0933 10.8799 17.2466 10.1466 16.2666 9.29989C14.8666 8.08656 13.2867 6.71323 13.8666 3.22655C12.8933 3.79989 11 5.3799 11.4733 8.63989C11.7133 10.2732 11.1466 11.4866 11.1266 11.5399L11.06 11.6798L10.9133 11.7066C10.6333 11.7599 10.3399 11.6466 10.0733 11.3932C9.71328 11.0399 9.38662 10.3732 9.37328 9.46656C8.82662 10.0266 8.07329 10.9932 8.07329 12.0932C8.07329 13.8999 8.95328 15.8466 8.95995 15.8665L9.20662 16.4132L8.61995 16.2865C7.08661 15.9532 6.51329 14.5265 6.36662 13.3598Z" fill="url(#paint3_linear_11_95)"/>
<path d="M16.1599 4.65356C16.0265 5.66023 16.4266 7.1069 17.0665 7.59356C17.6532 8.04023 18.3132 8.8069 18.3665 9.48023C19.3666 7.52023 17.9598 6.79357 17.1532 6.5069C16.8132 6.38689 16.1865 5.68689 16.1599 4.65356Z" fill="url(#paint4_radial_11_95)"/>
<path d="M13.0867 4.36702C10.8735 7.83369 13.7468 11.4937 12.2668 13.687C10.7868 15.8803 9.28679 13.8537 9.18679 12.4803C9.18679 12.4803 9.20013 16.9204 11.3935 18.6737C13.5868 20.427 7.17345 20.0471 6.29346 17.907C6.29346 17.907 6.29346 25.0336 13.5268 25.0336C20.7601 25.0336 21.9668 18.4003 21.9668 18.4003C21.9668 18.4003 19.3334 20.647 17.5802 18.8937C17.5802 18.8937 18.8935 16.5937 19.2268 14.2337C19.2268 14.2337 18.3202 14.807 16.9268 14.5871C16.9268 14.5871 17.7001 11.2737 16.1201 10.187C14.0935 8.79369 12.3801 5.4737 13.0867 4.36702Z" fill="url(#paint5_linear_11_95)"/>
<path d="M13.64 8.44637C12.4799 9.97304 14.74 13.893 12.3667 15.4463C11.0533 16.3064 10.3 15.2731 10.3 15.2731C10.3 15.2731 10.6533 16.8597 12.0666 18.273C13.48 19.6863 9.93999 21.5997 7.06665 19.1263C7.06665 19.1263 8.05331 25.0664 14.74 24.0663C22.12 22.9664 21.5733 17.4797 21.5733 17.4797C21.5733 17.4797 19.5733 20.6263 16.7266 19.1197C16.7266 19.1197 18.52 16.6197 18.52 15.1864C18.52 15.1864 17.3067 15.9063 15.92 15.213C15.92 15.213 16.58 11.8797 15.7933 11.3797C13.9067 10.173 13.64 8.44637 13.64 8.44637Z" fill="url(#paint6_linear_11_95)"/>
<path opacity="0.5" d="M18.3666 12.2599C18.4399 8.57325 12.8399 9.07992 14.28 2.66658C14.28 2.66658 10.52 4.14659 11.18 8.68658C11.4066 10.2466 10.86 11.4133 10.86 11.4133C10.3066 11.5266 9.44662 10.4266 9.74661 8.72659C9.74661 8.72659 7.77329 10.1999 7.77329 12.0932C7.77329 13.9866 8.68662 15.9933 8.68662 15.9933C6.41328 15.4999 6.63996 12.4333 6.63996 12.4333C6.63996 12.4333 5.19995 14.3599 5.19995 17.9933C5.19995 20.8199 8.38662 25.3332 13.5266 25.3332C18.6666 25.3332 22.7932 21.3466 22.7932 17.8C22.7932 16.2465 22.2666 14.2399 21.1267 13.1466C21.1267 13.1466 21.28 16.2465 19.7466 16.0999C19.7466 16.0999 21.0133 12.0533 19.6866 10.1999C19.6866 10.1999 19.0466 12.2 18.3666 12.2599Z" fill="url(#paint7_radial_11_95)"/>
<path opacity="0.5" d="M18.3666 12.2599C18.4399 8.57325 12.8399 9.07992 14.28 2.66658C14.28 2.66658 10.52 4.14659 11.18 8.68658C11.4066 10.2466 10.86 11.4133 10.86 11.4133C10.3066 11.5266 9.44662 10.4266 9.74661 8.72659C9.74661 8.72659 7.77329 10.1999 7.77329 12.0932C7.77329 13.9866 8.68662 15.9933 8.68662 15.9933C6.41328 15.4999 6.63996 12.4333 6.63996 12.4333C6.63996 12.4333 5.19995 14.3599 5.19995 17.9933C5.19995 20.8199 8.38662 25.3332 13.5266 25.3332C18.6666 25.3332 22.7932 21.3466 22.7932 17.8C22.7932 16.2465 22.2666 14.2399 21.1267 13.1466C21.1267 13.1466 21.28 16.2465 19.7466 16.0999C19.7466 16.0999 21.0133 12.0533 19.6866 10.1999C19.6866 10.1999 19.0466 12.2 18.3666 12.2599Z" fill="url(#paint8_radial_11_95)"/>
<path d="M5.65332 16.4466C5.80666 20.2132 8.90665 24.7266 13.7534 24.7266C18.5999 24.7266 21.02 19.6133 21.1734 16.6199C21.1734 16.6199 20.2666 18.3799 18.22 18.7333C16.1733 19.0865 18.36 15.2132 16.9267 12.9199C16.9267 12.9199 15.6599 16.9133 13.86 17.0599C12.06 17.2066 10.5333 14.4199 10.5333 12.9199C10.5333 12.9199 9.42666 15.6199 9.69999 17.7666C10.12 21.0266 5.65332 16.4466 5.65332 16.4466Z" fill="url(#paint9_radial_11_95)"/>
<path opacity="0.5" d="M18.3666 12.2599C18.4399 8.57325 12.8399 9.07992 14.28 2.66658C14.28 2.66658 10.52 4.14659 11.18 8.68658C11.4066 10.2466 10.86 11.4133 10.86 11.4133C10.3066 11.5266 9.44662 10.4266 9.74661 8.72659C9.74661 8.72659 7.77329 10.1999 7.77329 12.0932C7.77329 13.9866 8.68662 15.9933 8.68662 15.9933C6.41328 15.4999 6.63996 12.4333 6.63996 12.4333C6.63996 12.4333 5.19995 14.3599 5.19995 17.9933C5.19995 20.8199 8.38662 25.3332 13.5266 25.3332C18.6666 25.3332 22.7932 21.3466 22.7932 17.8C22.7932 16.2465 22.2666 14.2399 21.1267 13.1466C21.1267 13.1466 21.28 16.2465 19.7466 16.0999C19.7466 16.0999 21.0133 12.0533 19.6866 10.1999C19.6866 10.1999 19.0466 12.2 18.3666 12.2599Z" fill="url(#paint10_radial_11_95)"/>
<path opacity="0.5" d="M18.3731 9.48023C19.8663 6.72689 16.1663 6.3469 16.1597 4.65356C16.1597 4.65356 15.5063 6.40023 17.0664 7.59356C18.3397 8.56023 18.3731 9.48023 18.3731 9.48023Z" fill="url(#paint11_radial_11_95)"/>
<path d="M10.5198 4.21322C9.95983 4.77322 10.3198 6.53988 8.95983 7.99988C8.95983 7.99988 8.35983 5.45988 10.5198 4.21322Z" fill="url(#paint12_radial_11_95)"/>
<path opacity="0.5" d="M10.5198 4.21322C9.95316 4.77322 10.7332 7.08655 8.95983 7.99988C8.95983 7.99988 8.35983 5.45988 10.5198 4.21322Z" fill="url(#paint13_radial_11_95)"/>
<path opacity="0.5" d="M18.3666 12.2599C18.4399 8.57325 12.8399 9.07992 14.28 2.66658C14.28 2.66658 10.52 4.14659 11.18 8.68658C11.4066 10.2466 10.86 11.4133 10.86 11.4133C10.3066 11.5266 9.44662 10.4266 9.74661 8.72659C9.74661 8.72659 7.77329 10.1999 7.77329 12.0932C7.77329 13.9866 8.68662 15.9933 8.68662 15.9933C6.41328 15.4999 6.63996 12.4333 6.63996 12.4333C6.63996 12.4333 5.19995 14.3599 5.19995 17.9933C5.19995 20.8199 8.38662 25.3332 13.5266 25.3332C18.6666 25.3332 22.7932 21.3466 22.7932 17.8C22.7932 16.2465 22.2666 14.2399 21.1267 13.1466C21.1267 13.1466 21.28 16.2465 19.7466 16.0999C19.7466 16.0999 21.0133 12.0533 19.6866 10.1999C19.6866 10.1999 19.0466 12.2 18.3666 12.2599Z" fill="url(#paint14_radial_11_95)"/>
<path opacity="0.25" d="M18.3666 12.2599C18.4399 8.57325 12.8399 9.07992 14.28 2.66658C14.28 2.66658 10.52 4.14659 11.18 8.68658C11.4066 10.2466 10.86 11.4133 10.86 11.4133C10.3066 11.5266 9.44662 10.4266 9.74661 8.72659C9.74661 8.72659 7.77329 10.1999 7.77329 12.0932C7.77329 13.9866 8.68662 15.9933 8.68662 15.9933C6.41328 15.4999 6.63996 12.4333 6.63996 12.4333C6.63996 12.4333 5.19995 14.3599 5.19995 17.9933C5.19995 20.8199 8.38662 25.3332 13.5266 25.3332C18.6666 25.3332 22.7932 21.3466 22.7932 17.8C22.7932 16.2465 22.2666 14.2399 21.1267 13.1466C21.1267 13.1466 21.28 16.2465 19.7466 16.0999C19.7466 16.0999 21.0133 12.0533 19.6866 10.1999C19.6866 10.1999 19.0466 12.2 18.3666 12.2599Z" fill="url(#paint15_radial_11_95)"/>
<path opacity="0.25" d="M18.3666 12.2599C18.4399 8.57325 12.8399 9.07992 14.28 2.66658C14.28 2.66658 10.52 4.14659 11.18 8.68658C11.4066 10.2466 10.86 11.4133 10.86 11.4133C10.3066 11.5266 9.44662 10.4266 9.74661 8.72659C9.74661 8.72659 7.77329 10.1999 7.77329 12.0932C7.77329 13.9866 8.68662 15.9933 8.68662 15.9933C6.41328 15.4999 6.63996 12.4333 6.63996 12.4333C6.63996 12.4333 5.19995 14.3599 5.19995 17.9933C5.19995 20.8199 8.38662 25.3332 13.5266 25.3332C18.6666 25.3332 22.7932 21.3466 22.7932 17.8C22.7932 16.2465 22.2666 14.2399 21.1267 13.1466C21.1267 13.1466 21.28 16.2465 19.7466 16.0999C19.7466 16.0999 21.0133 12.0533 19.6866 10.1999C19.6866 10.1999 19.0466 12.2 18.3666 12.2599Z" fill="url(#paint16_radial_11_95)"/>
<path opacity="0.25" d="M18.3666 12.2599C18.4399 8.57325 12.8399 9.07992 14.28 2.66658C14.28 2.66658 10.52 4.14659 11.18 8.68658C11.4066 10.2466 10.86 11.4133 10.86 11.4133C10.3066 11.5266 9.44662 10.4266 9.74661 8.72659C9.74661 8.72659 7.77329 10.1999 7.77329 12.0932C7.77329 13.9866 8.68662 15.9933 8.68662 15.9933C6.41328 15.4999 6.63996 12.4333 6.63996 12.4333C6.63996 12.4333 5.19995 14.3599 5.19995 17.9933C5.19995 20.8199 8.38662 25.3332 13.5266 25.3332C18.6666 25.3332 22.7932 21.3466 22.7932 17.8C22.7932 16.2465 22.2666 14.2399 21.1267 13.1466C21.1267 13.1466 21.28 16.2465 19.7466 16.0999C19.7466 16.0999 21.0133 12.0533 19.6866 10.1999C19.6866 10.1999 19.0466 12.2 18.3666 12.2599Z" fill="url(#paint17_radial_11_95)"/>
<defs>
<linearGradient id="paint0_linear_11_95" x1="15.124" y1="25.9597" x2="11.0372" y2="-3.65702" gradientUnits="userSpaceOnUse">
<stop stop-color="#FF0000"/>
<stop offset="0.2317" stop-color="#FF1500"/>
<stop offset="0.7367" stop-color="#FF3D00"/>
<stop offset="0.9987" stop-color="#FF4C00"/>
</linearGradient>
<linearGradient id="paint1_linear_11_95" x1="19.9126" y1="25.2993" x2="15.8258" y2="-4.31752" gradientUnits="userSpaceOnUse">
<stop stop-color="#FF0000"/>
<stop offset="0.2317" stop-color="#FF1500"/>
<stop offset="0.7367" stop-color="#FF3D00"/>
<stop offset="0.9987" stop-color="#FF4C00"/>
</linearGradient>
<linearGradient id="paint2_linear_11_95" x1="12.5238" y1="26.3185" x2="8.43698" y2="-3.29827" gradientUnits="userSpaceOnUse">
<stop stop-color="#FF0000"/>
<stop offset="0.2317" stop-color="#FF1500"/>
<stop offset="0.7367" stop-color="#FF3D00"/>
<stop offset="0.9987" stop-color="#FF4C00"/>
</linearGradient>
<linearGradient id="paint3_linear_11_95" x1="15.0139" y1="20.9148" x2="6.08346" y2="-4.5899" gradientUnits="userSpaceOnUse">
<stop stop-color="#FF8000"/>
<stop offset="0.6388" stop-color="#FF5B00"/>
<stop offset="0.9987" stop-color="#FF4C00"/>
</linearGradient>
<radialGradient id="paint4_radial_11_95" cx="0" cy="0" r="1" gradientUnits="userSpaceOnUse" gradientTransform="translate(18.8386 0.158512) scale(11.9007 11.9007)">
<stop offset="0.00134333" stop-color="#FFED1C" stop-opacity="0.6"/>
<stop offset="0.9477" stop-color="#FFED1C" stop-opacity="0.0264782"/>
<stop offset="0.9914" stop-color="#FFED1C" stop-opacity="0"/>
</radialGradient>
<linearGradient id="paint5_linear_11_95" x1="11.5463" y1="3.89576" x2="14.7754" y2="22.0089" gradientUnits="userSpaceOnUse">
<stop stop-color="#FF8000"/>
<stop offset="0.022669" stop-color="#FE7F02" stop-opacity="0.9773"/>
<stop offset="0.6663" stop-color="#ED582A" stop-opacity="0.3337"/>
<stop offset="1" stop-color="#E74939" stop-opacity="0"/>
</linearGradient>
<linearGradient id="paint6_linear_11_95" x1="14.0537" y1="23.4682" x2="14.7516" y2="10.75" gradientUnits="userSpaceOnUse">
<stop stop-color="#FFBC47"/>
<stop offset="0.1869" stop-color="#FFB137" stop-opacity="0.8131"/>
<stop offset="0.7223" stop-color="#FF940F" stop-opacity="0.2777"/>
<stop offset="1" stop-color="#FF8900" stop-opacity="0"/>
</linearGradient>
<radialGradient id="paint7_radial_11_95" cx="0" cy="0" r="1" gradientUnits="userSpaceOnUse" gradientTransform="translate(13.8801 20.0362) scale(9.20585 7.4733)">
<stop offset="0.00134333" stop-color="#FFBC47"/>
<stop offset="0.2941" stop-color="#FFBF4B" stop-opacity="0.7068"/>
<stop offset="0.5624" stop-color="#FEC656" stop-opacity="0.4382"/>
<stop offset="0.8201" stop-color="#FCD368" stop-opacity="0.1801"/>
<stop offset="1" stop-color="#FBE07A" stop-opacity="0"/>
</radialGradient>
<radialGradient id="paint8_radial_11_95" cx="0" cy="0" r="1" gradientUnits="userSpaceOnUse" gradientTransform="translate(13.8801 19.6577) scale(8.92218 7.24302)">
<stop offset="0.00134333" stop-color="white"/>
<stop offset="1" stop-color="white" stop-opacity="0"/>
</radialGradient>
<radialGradient id="paint9_radial_11_95" cx="0" cy="0" r="1" gradientUnits="userSpaceOnUse" gradientTransform="translate(9.96793 21.3034) scale(10.9603 12.761)">
<stop offset="0.00134333" stop-color="#FFED1C" stop-opacity="0.6"/>
<stop offset="0.9477" stop-color="#FFED1C" stop-opacity="0.0264782"/>
<stop offset="0.9914" stop-color="#FFED1C" stop-opacity="0"/>
</radialGradient>
<radialGradient id="paint10_radial_11_95" cx="0" cy="0" r="1" gradientUnits="userSpaceOnUse" gradientTransform="translate(13.8806 19.6568) rotate(92.8876) scale(3.46397 2.8119)">
<stop offset="0.00134333" stop-color="white"/>
<stop offset="1" stop-color="white" stop-opacity="0"/>
</radialGradient>
<radialGradient id="paint11_radial_11_95" cx="0" cy="0" r="1" gradientUnits="userSpaceOnUse" gradientTransform="translate(15.7951 4.64724) scale(3.93188)">
<stop offset="0.00134333" stop-color="#FFED1C"/>
<stop offset="0.1997" stop-color="#FFEE2B" stop-opacity="0.8013"/>
<stop offset="0.5839" stop-color="#FFF254" stop-opacity="0.4167"/>
<stop offset="1" stop-color="#FFF686" stop-opacity="0"/>
</radialGradient>
<radialGradient id="paint12_radial_11_95" cx="0" cy="0" r="1" gradientUnits="userSpaceOnUse" gradientTransform="translate(9.3118 6.53889) rotate(-56.4116) scale(3.18491 0.723304)">
<stop offset="0.00134333" stop-color="#FFED1C" stop-opacity="0.6"/>
<stop offset="0.9477" stop-color="#FFED1C" stop-opacity="0.0264782"/>
<stop offset="0.9914" stop-color="#FFED1C" stop-opacity="0"/>
</radialGradient>
<radialGradient id="paint13_radial_11_95" cx="0" cy="0" r="1" gradientUnits="userSpaceOnUse" gradientTransform="translate(9.94254 4.0414) rotate(95.0573) scale(2.8618 1.1515)">
<stop offset="0.00134333" stop-color="#FFED1C"/>
<stop offset="0.1997" stop-color="#FFEE2B" stop-opacity="0.8013"/>
<stop offset="0.5839" stop-color="#FFF254" stop-opacity="0.4167"/>
<stop offset="1" stop-color="#FFF686" stop-opacity="0"/>
</radialGradient>
<radialGradient id="paint14_radial_11_95" cx="0" cy="0" r="1" gradientUnits="userSpaceOnUse" gradientTransform="translate(14.9217 4.14238) scale(12.2687)">
<stop offset="0.00134333" stop-color="#FF4C00"/>
<stop offset="0.135" stop-color="#FF5B0C" stop-opacity="0.8661"/>
<stop offset="0.3941" stop-color="#FF842C" stop-opacity="0.6067"/>
<stop offset="0.7491" stop-color="#FFC45F" stop-opacity="0.2512"/>
<stop offset="1" stop-color="#FFF686" stop-opacity="0"/>
</radialGradient>
<radialGradient id="paint15_radial_11_95" cx="0" cy="0" r="1" gradientUnits="userSpaceOnUse" gradientTransform="translate(20.5018 14.0819) scale(6.51201)">
<stop offset="0.00134333" stop-color="#FFED1C"/>
<stop offset="0.1997" stop-color="#FFEE2B" stop-opacity="0.8013"/>
<stop offset="0.5839" stop-color="#FFF254" stop-opacity="0.4167"/>
<stop offset="1" stop-color="#FFF686" stop-opacity="0"/>
</radialGradient>
<radialGradient id="paint16_radial_11_95" cx="0" cy="0" r="1" gradientUnits="userSpaceOnUse" gradientTransform="translate(7.17158 16.4029) scale(6.94097)">
<stop offset="0.00134333" stop-color="#FFED1C"/>
<stop offset="0.1997" stop-color="#FFEE2B" stop-opacity="0.8013"/>
<stop offset="0.5839" stop-color="#FFF254" stop-opacity="0.4167"/>
<stop offset="1" stop-color="#FFF686" stop-opacity="0"/>
</radialGradient>
<radialGradient id="paint17_radial_11_95" cx="0" cy="0" r="1" gradientUnits="userSpaceOnUse" gradientTransform="translate(13.7765 14.9999) rotate(86.1102) scale(11.8894 7.22751)">
<stop stop-color="#FF4C00" stop-opacity="0"/>
<stop offset="0.9874" stop-color="#FF4C00" stop-opacity="0.9888"/>
<stop offset="0.9987" stop-color="#FF4C00"/>
</radialGradient>
</defs>
</svg>
